<svg width="11" height="11" viewBox="0 0 11 11" fill="none" xmlns="http://www.w3.org/2000/svg">
<g clip-path="url(#clip0_2602_2318)">
<path fill-rule="evenodd" clip-rule="evenodd" d="M9.90516 0H3.7828C3.48626 0 3.29754 0.243444 3.29754 0.539795V0.555371C3.29754 0.857767 3.47965 1.09973 3.78225 1.09973H8.4857C8.73108 1.09973 8.85322 1.39867 8.67992 1.57131L0.159347 10.0727C-0.0530212 10.2844 -0.0530251 10.6291 0.158793 10.8407C0.37116 11.0524 0.715021 11.053 0.926288 10.8407L9.43255 2.3187C9.60585 2.14551 9.89965 2.26792 9.89965 2.5126V7.16128C9.89965 7.46038 10.1478 7.69731 10.4476 7.69731H10.463C10.7629 7.69731 11 7.46038 11 7.16128V1.10564C11 0.498093 10.5131 0 9.90516 0Z" fill="white"/>
</g>
<defs>
<clipPath id="clip0_2602_2318">
<rect width="11" height="11" fill="white"/>
</clipPath>
</defs>
</svg>
