<svg width="13" height="13" viewBox="0 0 13 13" fill="none" xmlns="http://www.w3.org/2000/svg">
<g clip-path="url(#clip0_2602_2306)">
<path fill-rule="evenodd" clip-rule="evenodd" d="M11.7061 0H4.47059C4.12013 0 3.8971 0.287706 3.8971 0.637939V0.656348C3.8971 1.01372 4.11232 1.29968 4.46993 1.29968H10.0286C10.3185 1.29968 10.4629 1.65298 10.2581 1.85701L0.188319 11.9041C-0.0626614 12.1542 -0.062666 12.5616 0.187664 12.8118C0.438644 13.062 0.845025 13.0626 1.0947 12.8118L11.1476 2.74028C11.3524 2.5356 11.6996 2.68027 11.6996 2.96943V8.46333C11.6996 8.81681 11.9928 9.09683 12.3472 9.09683H12.3654C12.7198 9.09683 13 8.81681 13 8.46333V1.30667C13 0.588656 12.4246 0 11.7061 0Z" fill="#D6FF3F"/>
</g>
<defs>
<clipPath id="clip0_2602_2306">
<rect width="13" height="13" fill="white"/>
</clipPath>
</defs>
</svg>
