<svg width="353" height="353" viewBox="0 0 353 353" fill="none" xmlns="http://www.w3.org/2000/svg">
<rect width="353" height="353" fill="#0C0E0E"/>
<path d="M225.498 200.054C225.498 197.799 227.348 195.972 229.629 195.972H242.025C244.306 195.972 246.156 197.799 246.156 200.054V208.219C246.156 210.474 244.306 212.302 242.025 212.302H229.629C227.348 212.302 225.498 210.474 225.498 208.219V200.054Z" fill="#D6FF3F"/>
<path d="M254.42 200.054C254.42 197.799 256.269 195.972 258.551 195.972H270.946C273.228 195.972 275.078 197.799 275.078 200.054V208.219C275.078 210.474 273.228 212.302 270.946 212.302H258.551C256.269 212.302 254.42 210.474 254.42 208.219V200.054Z" fill="#D6FF3F"/>
<path d="M283.342 200.054C283.342 197.799 285.191 195.972 287.473 195.972H299.868C302.15 195.972 304 197.799 304 200.054V208.219C304 210.474 302.15 212.302 299.868 212.302H287.473C285.191 212.302 283.342 210.474 283.342 208.219V200.054Z" fill="#D6FF3F"/>
<path d="M48 187.464V138H69.4848V185.128C69.4848 190.648 72.5285 193.408 78.6159 193.408C84.7033 193.408 87.7469 190.648 87.7469 185.128V138H109.232V187.464C109.232 195.389 106.403 201.793 100.745 206.676C95.0876 211.559 87.7111 214 78.6159 214C69.5206 214 62.1442 211.559 56.4865 206.676C50.8288 201.793 48 195.389 48 187.464Z" fill="white"/>
<path d="M165.671 138V158.592H140.427V168.251H165.134V188.844H140.427V212.302H118.942V138H165.671Z" fill="white"/>
<path d="M220.957 138V158.592H195.712V168.251H220.42V188.844H195.712V212.302H174.228V138H220.957Z" fill="white"/>
</svg>
