<svg width="52" height="38" viewBox="0 0 52 38" fill="none" xmlns="http://www.w3.org/2000/svg">
<path fill-rule="evenodd" clip-rule="evenodd" d="M20.7699 25.7208V11.1301C25.9497 13.5674 29.9613 15.9219 34.706 18.4603C30.7927 20.6306 25.9497 23.0657 20.7699 25.7208ZM49.6366 3.87341C48.7431 2.69624 47.2203 1.77991 45.599 1.47654C40.8337 0.571608 11.1046 0.569034 6.3418 1.47654C5.04168 1.72026 3.88397 2.30938 2.88946 3.22468C-1.30094 7.11402 0.0121321 27.9713 1.02218 31.3499C1.44692 32.8123 1.99599 33.8669 2.68749 34.5593C3.5784 35.4745 4.79821 36.1048 6.19933 36.3874C10.123 37.199 30.3369 37.6527 45.5161 36.5093C46.9146 36.2655 48.1526 35.615 49.129 34.6608C53.0034 30.787 52.7393 8.75842 49.6366 3.87341Z" fill="white"/>
</svg>
