<svg width="31" height="48" viewBox="0 0 31 48" fill="none" xmlns="http://www.w3.org/2000/svg">
<path d="M18.8693 47.7623H9.92225C9.31938 47.7623 8.77027 47.5135 8.37476 47.1132C7.97924 46.7128 7.73349 46.157 7.73349 45.5468V38.2744C7.73349 37.6641 7.97924 37.1083 8.37476 36.7079C8.77027 36.3076 9.31938 36.0588 9.92225 36.0588H18.8693C19.4722 36.0588 20.0213 36.3076 20.4168 36.7079C20.8123 37.1083 21.0581 37.6641 21.0581 38.2744V45.5468C21.0581 46.157 20.8123 46.7128 20.4168 47.1132C20.0213 47.5135 19.4722 47.7623 18.8693 47.7623ZM7.71813 30.6094C7.72581 29.937 7.76421 29.3073 7.82949 28.732C7.89477 28.1295 7.9946 27.5504 8.12516 26.9985C8.27108 26.3882 8.44772 25.8285 8.66275 25.3271C8.88547 24.7985 9.14658 24.3204 9.4461 23.8928L9.4653 23.8656L9.51522 23.7995L9.53058 23.7801C9.79553 23.4108 10.095 23.0377 10.4368 22.6646C10.7901 22.2798 11.1817 21.8872 11.6118 21.4946C12.0189 21.1215 12.495 20.7211 13.0364 20.2935C13.5433 19.8893 14.1078 19.4695 14.7222 19.0342C14.749 19.0109 14.7759 18.9875 14.8066 18.9681C14.8374 18.9448 14.8719 18.9253 14.9065 18.9098C15.1062 18.7776 15.302 18.6377 15.494 18.49C15.6898 18.3345 15.878 18.1674 16.0585 17.9925C16.2313 17.8215 16.3925 17.6388 16.5423 17.4522C16.6882 17.2695 16.8149 17.0868 16.9301 16.9042C16.9378 16.8886 16.9455 16.8769 16.957 16.8614C17.0722 16.6748 17.172 16.4883 17.2527 16.2939C17.3333 16.1073 17.4024 15.8974 17.4639 15.6642C17.5215 15.4466 17.5676 15.2134 17.5944 14.9646C17.6252 14.7158 17.6405 14.4554 17.6405 14.1794C17.6405 13.9035 17.6252 13.6586 17.5944 13.437C17.5637 13.2155 17.5176 13.0211 17.46 12.8462C17.4063 12.6869 17.3448 12.5392 17.268 12.407C17.1951 12.2749 17.1068 12.1544 17.0069 12.0416L16.9877 12.0222L16.9608 11.9911C16.884 11.9134 16.8034 11.8473 16.7189 11.7929C16.6229 11.7307 16.5116 11.6724 16.381 11.6219L16.3618 11.6141L16.3426 11.6063C16.1929 11.5519 16.0316 11.5091 15.8626 11.4819C15.6821 11.4547 15.471 11.4392 15.2214 11.4392C15.0332 11.4392 14.8681 11.4508 14.7298 11.4741C14.5916 11.4975 14.4572 11.5325 14.3343 11.5791C14.223 11.6219 14.1155 11.6724 14.0118 11.7385C13.9081 11.8006 13.8083 11.8784 13.7123 11.9678C13.6393 12.0378 13.574 12.1116 13.5203 12.1932C13.4588 12.2826 13.4089 12.3876 13.3628 12.5003C13.3091 12.6402 13.2668 12.8074 13.2323 13.0017C13.1939 13.2155 13.1747 13.437 13.167 13.6664V13.678C13.1478 14.2727 12.902 14.8091 12.5104 15.1939C12.1417 15.5554 11.6541 15.7886 11.1126 15.8197C11.0704 15.8236 11.032 15.8275 10.9898 15.8275H2.23855C1.74704 15.8275 1.29009 15.6603 0.921452 15.3805C0.552819 15.0967 0.272504 14.6964 0.138106 14.23L0.122746 14.1872C0.0728272 14.0473 0.0382678 13.9035 0.0190681 13.7674C-0.000131536 13.6197 -0.00397147 13.4798 0.0037084 13.336C-0.00397147 12.2826 0.0728272 11.2954 0.234104 10.378C0.403061 9.42575 0.660337 8.52787 1.01361 7.68441C1.38224 6.80209 1.84688 5.99361 2.40751 5.26287C2.96814 4.52825 3.62476 3.86747 4.37355 3.28444C5.09162 2.72472 5.8596 2.23886 6.67367 1.82685C7.48005 1.41872 8.35172 1.07667 9.28098 0.800703C10.1795 0.536393 11.128 0.334274 12.1187 0.202119C13.1248 0.0660774 14.1577 0 15.2175 0C16.3733 0 17.4792 0.0777381 18.5391 0.229327C19.595 0.380917 20.5973 0.614131 21.5496 0.921197C22.5172 1.23604 23.4234 1.6325 24.2682 2.11059C25.0861 2.57313 25.8464 3.11341 26.5492 3.73143C26.5914 3.76253 26.6298 3.79751 26.6682 3.83249L26.6797 3.84415C27.3901 4.4816 28.0083 5.16959 28.5421 5.91199C29.0873 6.67382 29.5481 7.49784 29.9168 8.38794C30.2816 9.2625 30.5542 10.1837 30.7308 11.1476C30.9113 12.1155 30.9996 13.1261 30.9996 14.1755C30.9996 14.8324 30.9497 15.4932 30.846 16.1579C30.7462 16.8148 30.5964 17.4522 30.3968 18.078C30.1971 18.7077 29.9475 19.3179 29.648 19.9087C29.3523 20.4995 29.0067 21.0748 28.615 21.6306C28.5997 21.654 28.5805 21.6812 28.5574 21.7084C28.1965 22.2214 27.7933 22.7229 27.3555 23.2165C26.9293 23.6946 26.48 24.1416 26.0154 24.5536C25.5277 24.985 25.0209 25.3815 24.4986 25.743C23.9994 26.0889 23.4734 26.4115 22.9127 26.7108C22.7092 26.8508 22.5249 26.9829 22.3675 27.1151C22.2062 27.2472 22.0603 27.3833 21.9336 27.5154C21.9182 27.531 21.9067 27.5426 21.8913 27.5582C21.8068 27.6515 21.73 27.7486 21.6532 27.8575C21.5841 27.9585 21.5265 28.0596 21.4804 28.1568L21.4651 28.1878L21.4612 28.1956C21.4536 28.2073 21.4497 28.2228 21.442 28.2345C21.396 28.3472 21.3499 28.4716 21.3115 28.6115C21.2692 28.767 21.227 28.9497 21.1924 29.1635C21.154 29.3889 21.1233 29.6377 21.1041 29.902C21.0849 30.1663 21.0734 30.4617 21.0734 30.7921C21.0734 31.4023 20.8277 31.9581 20.4321 32.3585C20.0366 32.7589 19.4875 33.0076 18.8846 33.0076H9.89537C9.2925 33.0076 8.74339 32.7589 8.34788 32.3585C8.32484 32.3352 8.3018 32.3119 8.2826 32.2846C7.92549 31.8921 7.70661 31.3673 7.70661 30.7921C7.70661 30.7882 7.70661 30.761 7.71045 30.6871C7.71429 30.6599 7.71813 30.6366 7.71813 30.6094ZM9.78401 28.9497C9.72257 29.4939 9.69185 30.0575 9.68033 30.6405C9.68033 30.6832 9.68033 30.726 9.6765 30.7688V30.7765C9.6765 30.8115 9.68033 30.7454 9.68033 30.7882C9.68033 30.8387 9.69569 30.8854 9.72257 30.9242L9.74177 30.9437C9.78017 30.9825 9.83393 31.0059 9.89537 31.0059H18.8962C18.9576 31.0059 19.0114 30.9825 19.0498 30.9437C19.0882 30.9048 19.1112 30.8504 19.1112 30.7882C19.1112 30.4345 19.1227 30.0924 19.1496 29.7582C19.1726 29.4239 19.211 29.1129 19.261 28.8253C19.307 28.5649 19.3646 28.3083 19.4338 28.0557C19.499 27.8303 19.572 27.6204 19.6565 27.426C19.6642 27.4066 19.6718 27.3833 19.6834 27.3638L19.691 27.3522L19.6949 27.3405C19.7909 27.1267 19.9099 26.9207 20.052 26.7147C20.1672 26.5515 20.3054 26.3766 20.4705 26.2016C20.4859 26.1822 20.5051 26.1589 20.5243 26.1394C20.7048 25.949 20.9083 25.7624 21.1348 25.5758C21.3576 25.3893 21.5995 25.2105 21.8568 25.0395C21.8836 25.02 21.9144 25.0045 21.9451 24.9889C22.4366 24.7285 22.9204 24.4331 23.3966 24.1027C23.865 23.7762 24.3105 23.4303 24.729 23.061C25.1476 22.6918 25.5393 22.2992 25.9079 21.8872C26.2688 21.4868 26.6183 21.0398 26.9639 20.554C26.9754 20.5423 26.9831 20.5268 26.9946 20.5151L26.9984 20.5112C26.9984 20.5112 26.9984 20.5112 27.0061 20.4995L27.0138 20.4918C27.3517 20.0137 27.6474 19.52 27.9008 19.0186C28.1542 18.5133 28.3654 17.9964 28.5306 17.4755C28.6995 16.943 28.8262 16.4027 28.9107 15.8586C28.9913 15.3261 29.0336 14.7664 29.0336 14.1794C29.0336 13.2388 28.9568 12.3487 28.8032 11.5169C28.6496 10.6812 28.4154 9.89606 28.112 9.16144C27.8048 8.42681 27.4208 7.73106 26.9523 7.08194C26.4877 6.43672 25.9501 5.84202 25.3396 5.29785L25.3242 5.28231C24.7137 4.73425 24.0417 4.25616 23.3159 3.84804C22.5863 3.43603 21.7953 3.09009 20.9505 2.81801C20.1134 2.54592 19.2187 2.33992 18.2626 2.20388C17.3103 2.06783 16.2965 1.99787 15.2214 1.99787C14.2115 1.99787 13.263 2.05617 12.3798 2.17667C11.4813 2.29327 10.6326 2.47207 9.83009 2.70917C9.03139 2.94628 8.27108 3.24557 7.55301 3.61094C6.83879 3.97242 6.18216 4.38832 5.57545 4.85863C4.95722 5.34061 4.41963 5.88089 3.96268 6.47947C3.50189 7.08194 3.12557 7.73883 2.82222 8.45791C2.53422 9.14978 2.31535 9.90384 2.17327 10.724C2.02735 11.5441 1.95823 12.4109 1.96591 13.3243C1.96975 13.3632 1.96975 13.4021 1.96591 13.4409C1.96591 13.4526 1.96591 13.4681 1.96975 13.4837C1.97359 13.5031 1.97743 13.5187 1.98127 13.5303L1.99279 13.5692C2.00431 13.6042 2.01583 13.6353 2.02735 13.6741C2.03887 13.7208 2.06959 13.7597 2.10415 13.7869C2.13871 13.8141 2.18479 13.8296 2.23471 13.8296H10.8899C10.9206 13.8257 10.9514 13.8257 10.9821 13.8257C11.0435 13.8257 11.0973 13.8024 11.1318 13.7635C11.1702 13.7247 11.1933 13.678 11.1971 13.6236V13.6158C11.2048 13.2621 11.2355 12.9395 11.2854 12.6558C11.3392 12.3487 11.4198 12.0572 11.5235 11.7812C11.6195 11.5286 11.7385 11.2954 11.8806 11.0855C12.0265 10.8639 12.1955 10.6657 12.3836 10.4946C12.5718 10.3236 12.7715 10.172 12.9827 10.0399C13.1939 9.90773 13.4204 9.79889 13.6585 9.70949C13.8927 9.62398 14.1462 9.5579 14.415 9.51126C14.6838 9.4685 14.9487 9.44518 15.2175 9.44518C15.5362 9.44518 15.8511 9.4685 16.1621 9.51903C16.4809 9.56956 16.7688 9.64342 17.03 9.74059C17.0415 9.74448 17.0568 9.75225 17.0684 9.75614L17.1068 9.77168C17.3448 9.86497 17.5752 9.98935 17.7903 10.1332C18.0015 10.2731 18.1973 10.4325 18.3663 10.6113C18.3893 10.6346 18.4123 10.6579 18.4354 10.6851L18.4815 10.7395C18.6658 10.9494 18.8271 11.1749 18.9653 11.4197C19.1074 11.6724 19.2264 11.9367 19.3186 12.2165C19.4184 12.512 19.4914 12.8268 19.5374 13.1572C19.5835 13.4876 19.6066 13.8257 19.6066 14.1794C19.6066 14.5293 19.5874 14.8713 19.5451 15.2056C19.5029 15.536 19.4414 15.8625 19.3608 16.1773C19.2802 16.4766 19.1765 16.7759 19.0498 17.0791C18.923 17.3745 18.781 17.6504 18.6197 17.9109L18.6159 17.9186C18.4469 18.1946 18.2664 18.455 18.0744 18.696C17.8786 18.9409 17.6674 19.1819 17.437 19.4073C17.2143 19.6289 16.9685 19.8465 16.7036 20.0564C16.477 20.2352 16.2351 20.4101 15.9701 20.5773C15.9471 20.5967 15.9241 20.6123 15.901 20.6278L15.8473 20.6628C15.2713 21.0748 14.7337 21.4713 14.246 21.86C13.7737 22.2331 13.3359 22.6063 12.9289 22.9755C12.5372 23.3331 12.1878 23.679 11.8845 24.0133C11.5926 24.3359 11.3392 24.643 11.128 24.9423C11.1165 24.9617 11.1011 24.9811 11.0857 25.0006L11.0397 25.0628C10.8246 25.3737 10.6365 25.7235 10.4714 26.1084C10.2947 26.5243 10.1488 26.979 10.0336 27.461C9.92993 27.908 9.84545 28.4055 9.78401 28.9497ZM9.92225 45.7683H18.8693C18.9307 45.7683 18.9845 45.745 19.0229 45.7061C19.0613 45.6673 19.0843 45.6129 19.0843 45.5507V38.2744C19.0843 38.2122 19.0613 38.1578 19.0229 38.1189C18.9845 38.08 18.9307 38.0567 18.8693 38.0567H9.92225C9.86081 38.0567 9.80705 38.08 9.76865 38.1189C9.73025 38.1578 9.70721 38.2122 9.70721 38.2744V45.5468C9.70721 45.609 9.73025 45.6634 9.76865 45.7023C9.81089 45.7411 9.86465 45.7683 9.92225 45.7683Z" fill="white"/>
</svg>
