<svg width="42" height="42" viewBox="0 0 42 42" fill="none" xmlns="http://www.w3.org/2000/svg">
<circle cx="21" cy="21" r="21" fill="#1E1E1E"/>
<path d="M14.2148 17.6885C14.2148 16.471 14.8307 15.472 16.0625 14.6914C17.3014 13.9036 18.6514 13.5098 20.1123 13.5098H21.3477C25.4727 13.5098 27.5352 15.1104 27.5352 18.3115C27.5352 19.0277 27.3597 19.6507 27.0088 20.1807C26.665 20.7035 26.2425 21.1045 25.7412 21.3838C25.2471 21.6631 24.7493 21.9137 24.248 22.1357C23.7539 22.3577 23.3314 22.6012 22.9805 22.8662C22.6367 23.124 22.4648 23.3854 22.4648 23.6504C22.4648 24.166 22.2464 24.4238 21.8096 24.4238H19.3926C19.1992 24.4238 19.0381 24.363 18.9092 24.2412C18.7874 24.1123 18.7266 23.9548 18.7266 23.7686C18.7266 23.1527 18.8447 22.6084 19.0811 22.1357C19.3174 21.6631 19.611 21.2943 19.9619 21.0293C20.3128 20.7572 20.6924 20.5029 21.1006 20.2666C21.516 20.0303 21.8991 19.8333 22.25 19.6758C23.0736 19.2962 23.4854 18.82 23.4854 18.2471C23.4854 17.6742 23.2884 17.248 22.8945 16.9688C22.5078 16.6895 21.8883 16.5498 21.0361 16.5498H20.4883C19.2995 16.5498 18.4867 16.9902 18.0498 17.8711C17.7275 18.5443 17.2441 18.8809 16.5996 18.8809H15.3213C14.9704 18.8809 14.6982 18.7555 14.5049 18.5049C14.3115 18.2542 14.2148 17.9821 14.2148 17.6885ZM18.5117 27.6572V26.9805C18.5117 26.5078 18.6406 26.1462 18.8984 25.8955C19.1562 25.6449 19.5107 25.5195 19.9619 25.5195H21.2832C21.7344 25.5195 22.0889 25.6449 22.3467 25.8955C22.6045 26.1462 22.7334 26.5078 22.7334 26.9805V27.6572C22.7334 28.1156 22.6045 28.4736 22.3467 28.7314C22.0889 28.9821 21.7344 29.1074 21.2832 29.1074H19.9619C19.5107 29.1074 19.1562 28.9821 18.8984 28.7314C18.6406 28.4736 18.5117 28.1156 18.5117 27.6572Z" fill="white"/>
</svg>
