<svg width="63" height="63" viewBox="0 0 63 63" fill="none" xmlns="http://www.w3.org/2000/svg">
<path fill-rule="evenodd" clip-rule="evenodd" d="M31.5 8.53125C32.5873 8.53125 33.4687 9.4127 33.4687 10.5V16.8C33.4687 17.8873 32.5873 18.7687 31.5 18.7687C30.4127 18.7687 29.5312 17.8873 29.5312 16.8V10.5C29.5312 9.4127 30.4127 8.53125 31.5 8.53125ZM8.53125 31.5C8.53125 30.4127 9.4127 29.5312 10.5 29.5312H16.8C17.8873 29.5312 18.7687 30.4127 18.7687 31.5C18.7687 32.5873 17.8873 33.4687 16.8 33.4687H10.5C9.4127 33.4687 8.53125 32.5873 8.53125 31.5ZM44.2312 31.5C44.2312 30.4127 45.1127 29.5312 46.2 29.5312H52.5C53.5873 29.5312 54.4687 30.4127 54.4687 31.5C54.4687 32.5873 53.5873 33.4687 52.5 33.4687H46.2C45.1127 33.4687 44.2312 32.5873 44.2312 31.5ZM31.5 44.2312C32.5873 44.2312 33.4687 45.1127 33.4687 46.2V52.5C33.4687 53.5873 32.5873 54.4687 31.5 54.4687C30.4127 54.4687 29.5312 53.5873 29.5312 52.5V46.2C29.5312 45.1127 30.4127 44.2312 31.5 44.2312Z" fill="#D6FF3F"/>
<g opacity="0.5">
<path d="M47.7375 15.2563C48.5063 16.0252 48.5063 17.2717 47.7375 18.0405L43.2829 22.4953C42.514 23.2642 41.2674 23.2642 40.4985 22.4953C39.7297 21.7265 39.7297 20.4799 40.4985 19.7111L44.9534 15.2563C45.7223 14.4875 46.9686 14.4875 47.7375 15.2563Z" fill="#9A8ABF"/>
<path d="M15.2563 15.2563C16.0252 14.4875 17.2717 14.4875 18.0405 15.2563L22.4953 19.7111C23.2642 20.4799 23.2642 21.7265 22.4953 22.4953C21.7265 23.2642 20.4799 23.2642 19.7111 22.4953L15.2563 18.0405C14.4875 17.2717 14.4875 16.0252 15.2563 15.2563Z" fill="#9A8ABF"/>
<path d="M22.4953 40.4985C23.2642 41.2674 23.2642 42.514 22.4953 43.2829L18.0406 47.7375C17.2717 48.5063 16.0252 48.5063 15.2563 47.7375C14.4875 46.9686 14.4875 45.722 15.2563 44.9534L19.7111 40.4985C20.48 39.7297 21.7265 39.7297 22.4953 40.4985Z" fill="#9A8ABF"/>
<path d="M40.4985 40.4985C41.2674 39.7297 42.514 39.7297 43.2829 40.4985L47.7375 44.9531C48.5063 45.722 48.5063 46.9686 47.7375 47.7375C46.9686 48.5063 45.722 48.5063 44.9534 47.7375L40.4985 43.2826C39.7297 42.5137 39.7297 41.2674 40.4985 40.4985Z" fill="#9A8ABF"/>
</g>
</svg>
