<svg width="22" height="22" viewBox="0 0 22 22" fill="none" xmlns="http://www.w3.org/2000/svg">
<path fill-rule="evenodd" clip-rule="evenodd" d="M11 0C17.0752 0 22 4.92484 22 11C22 17.0752 17.0752 22 11 22C4.92484 22 0 17.0752 0 11C0 4.92484 4.92484 0 11 0ZM16.2944 6.01952L14.3319 15.9142C14.3319 15.9142 14.0575 16.6003 13.3027 16.2708L8.78768 12.7165C8.78768 12.7165 13.8105 8.20147 14.0163 8.00935C14.2222 7.81722 14.1535 7.7761 14.1535 7.7761C14.1672 7.5428 13.783 7.7761 13.783 7.7761L7.12719 12.0029L4.35507 11.0697C4.35507 11.0697 3.92963 10.9187 3.88851 10.5894C3.84733 10.2599 4.3688 10.0816 4.3688 10.0816L15.3888 5.75875C15.3888 5.75875 16.2944 5.36077 16.2944 6.01952ZM10.5104 14.1302L8.71911 15.7633C8.71911 15.7633 8.57906 15.8695 8.42587 15.803L8.76887 12.7693L10.5104 14.1302Z" fill="white"/>
</svg>
