<svg width="39" height="39" viewBox="0 0 39 39" fill="none" xmlns="http://www.w3.org/2000/svg">
<path d="M19.5 0C15.6434 0 11.8731 1.14365 8.66638 3.28633C5.45963 5.42901 2.96027 8.4745 1.48436 12.0377C0.00845697 15.6007 -0.377717 19.5217 0.374691 23.3042C1.1271 27.0869 2.9843 30.5613 5.71143 33.2887C8.43855 36.0157 11.9131 37.8729 15.6958 38.6253C19.4783 39.3778 23.3993 38.9914 26.9624 37.5155C30.5255 36.0396 33.571 33.5405 35.7138 30.3337C37.8563 27.1269 39 23.3568 39 19.5C39 14.3283 36.9454 9.36838 33.2887 5.71142C29.6317 2.05445 24.6716 0 19.5 0ZM29.0794 13.3575L25.8862 28.4456C25.6425 29.5181 25.0088 29.7618 24.1069 29.2743L19.2319 25.6668L16.7944 27.9337C16.6796 28.0836 16.5321 28.2055 16.3632 28.2901C16.1943 28.3744 16.0083 28.4193 15.8194 28.4212L16.1606 23.5462L25.1794 15.3806C25.5937 15.0394 25.1794 14.8444 24.5944 15.1856L13.5281 22.1325L8.65312 20.6212C7.605 20.3044 7.58062 19.5731 8.8725 19.0856L27.6656 11.7731C28.5919 11.505 29.3719 12.0412 29.0794 13.3575Z" fill="white"/>
</svg>
