<svg width="487" height="102" viewBox="0 0 487 102" fill="none" xmlns="http://www.w3.org/2000/svg">
<path d="M68.3 26.3C70.8 27.2 72.1 30.1 71.2 32.7L56.2 72.7C55.4 74.6 53.5 76 51.4 76C49.3 76 47.4 74.7 46.7 72.7L36.3 45L26 72.7C25.2 74.6 23.3 76 21.2 76C19.1 76 17.2 74.7 16.5 72.7L1.5 32.7C0.5 30.1 1.8 27.2 4.4 26.3C6.9 25.3 9.8 26.6 10.7 29.2L21.2 57.1L31.6 29.4C32.1 28 33.1 26.8 34.6 26.3C35.1 26.1 35.6 26 36.1 26C36.2 26 36.3 26 36.3 26C36.4 26 36.4 26 36.4 26C36.5 26 36.5 26 36.6 26C36.6 26 36.6 26 36.7 26H36.8C36.9 26 36.9 26 36.9 26C37 26 37 26 37 26C37.1 26 37.1 26 37.2 26C37.2 26 37.2 26.1 37.3 26.1H37.4C37.5 26.1 37.5 26.1 37.5 26.1C37.6 26.1 37.6 26.1 37.7 26.2C37.8 26.2 37.9 26.2 37.9 26.2C38 26.3 38 26.3 38.1 26.3C39.5 26.8 40.6 28 41 29.4L51.4 57.1L61.9 29.2C62.9 26.6 65.7 25.3 68.3 26.3ZM98.282 25.8C110.382 25.8 123.382 34.6 123.382 50.9C123.382 53.6 121.182 55.8 118.382 55.8H83.882C85.982 61.8 91.582 66.1 98.282 66.1C100.582 66.1 104.682 65.9 109.482 62.8C111.782 61.3 114.882 62.7 116.082 65.1C117.282 67.6 115.982 70.2 113.682 71.7C107.082 76.1 101.982 76 98.282 76C84.382 76 73.182 64.7 73.182 50.9C73.182 37 84.382 25.8 98.282 25.8ZM98.282 35.7C91.582 35.7 85.982 40 83.882 45.9H112.782C110.682 38.9 104.282 35.7 98.282 35.7ZM154.591 25.6C168.491 25.6 179.691 36.8 179.691 50.7C179.691 64.5 168.491 75.8 154.591 75.8C140.791 75.8 129.491 64.5 129.491 50.7V50.6V5.8C129.491 3.1 131.691 0.899995 134.491 0.899995C137.191 0.899995 139.391 3.1 139.391 5.8V30.7C143.591 27.5 148.891 25.6 154.591 25.6ZM154.591 65.9C162.991 65.9 169.791 59 169.791 50.7C169.791 42.3 162.991 35.5 154.591 35.5C146.191 35.5 139.391 42.3 139.391 50.6V50.7C139.391 59.1 146.191 65.9 154.591 65.9Z" fill="#396DF4"/>
<path d="M208.048 25.8C220.148 25.8 233.148 34.6 233.148 50.9C233.148 53.6 230.948 55.8 228.148 55.8H193.648C195.748 61.8 201.348 66.1 208.048 66.1C210.348 66.1 214.448 65.9 219.248 62.8C221.548 61.3 224.648 62.7 225.848 65.1C227.048 67.6 225.748 70.2 223.448 71.7C216.848 76.1 211.748 76 208.048 76C194.148 76 182.948 64.7 182.948 50.9C182.948 37 194.148 25.8 208.048 25.8ZM208.048 35.7C201.348 35.7 195.748 40 193.648 45.9H222.548C220.448 38.9 214.048 35.7 208.048 35.7ZM264.247 25.8C278.047 25.8 289.347 37 289.347 50.9V71C289.347 73.8 287.147 76 284.347 76C281.647 76 279.447 73.8 279.447 71V50.9C279.447 42.5 272.647 35.7 264.247 35.7C255.847 35.7 249.047 42.5 249.047 50.9V71C249.047 73.8 246.847 76 244.047 76C241.347 76 239.147 73.8 239.147 71V50.9C239.147 37 250.447 25.8 264.247 25.8ZM345.402 50.9C345.402 50.9 345.402 50.9 345.402 76C345.402 89.8 334.102 101.1 320.302 101.1C310.602 101.1 302.002 95.7 297.702 87C296.502 84.5 297.502 81.6 300.002 80.4C302.402 79.2 305.402 80.2 306.602 82.6C309.202 87.9 314.402 91.2 320.302 91.2C328.602 91.2 335.302 84.5 335.502 76.3C335.502 76.2 335.502 76.1 335.502 70.8C331.202 74 326.002 76 320.302 76C306.402 76 295.202 64.7 295.202 50.9C295.202 37 306.402 25.8 320.302 25.8C334.102 25.8 345.402 37 345.402 50.9ZM320.302 66.1C328.602 66.1 335.502 59.2 335.502 50.9C335.502 42.5 328.602 35.7 320.302 35.7C311.902 35.7 305.102 42.5 305.102 50.9C305.102 59.2 311.902 66.1 320.302 66.1ZM356.073 76.1C353.273 76.1 351.073 73.9 351.073 71.1V30.8C351.073 28.1 353.273 25.9 356.073 25.9C358.773 25.9 360.973 28.1 360.973 30.8V71.1C360.973 73.9 358.773 76.1 356.073 76.1ZM356.073 15.9C354.773 15.9 353.473 15.4 352.573 14.5C351.673 13.6 351.073 12.3 351.073 11C351.073 9.7 351.673 8.39999 352.573 7.49999C353.473 6.6 354.773 6 356.073 6C357.373 6 358.673 6.6 359.573 7.49999C360.473 8.39999 360.973 9.7 360.973 11C360.973 12.3 360.473 13.6 359.573 14.5C358.673 15.4 357.373 15.9 356.073 15.9ZM391.786 25.8C405.586 25.8 416.886 37 416.886 50.9V71C416.886 73.8 414.686 76 411.886 76C409.186 76 406.986 73.8 406.986 71V50.9C406.986 42.5 400.186 35.7 391.786 35.7C383.386 35.7 376.586 42.5 376.586 50.9V71C376.586 73.8 374.386 76 371.586 76C368.886 76 366.686 73.8 366.686 71V50.9C366.686 37 377.986 25.8 391.786 25.8ZM447.891 25.8C459.991 25.8 472.991 34.6 472.991 50.9C472.991 53.6 470.791 55.8 467.991 55.8H433.491C435.591 61.8 441.191 66.1 447.891 66.1C450.191 66.1 454.291 65.9 459.091 62.8C461.391 61.3 464.491 62.7 465.691 65.1C466.891 67.6 465.591 70.2 463.291 71.7C456.691 76.1 451.591 76 447.891 76C433.991 76 422.791 64.7 422.791 50.9C422.791 37 433.991 25.8 447.891 25.8ZM447.891 35.7C441.191 35.7 435.591 40 433.491 45.9H462.391C460.291 38.9 453.891 35.7 447.891 35.7ZM481.761 76C480.461 76 479.261 75.5 478.261 74.5C477.361 73.6 476.861 72.3 476.861 71C476.861 69.7 477.361 68.5 478.261 67.5C479.261 66.6 480.461 66.1 481.761 66.1C483.061 66.1 484.361 66.6 485.261 67.5C486.261 68.5 486.761 69.7 486.761 71C486.761 72.3 486.261 73.6 485.261 74.5C484.361 75.5 483.061 76 481.761 76Z" fill="#212121"/>
</svg>
