<svg width="42" height="42" viewBox="0 0 42 42" fill="none" xmlns="http://www.w3.org/2000/svg">
<circle cx="21" cy="21" r="21" fill="#1E1E1E"/>
<path d="M14.2127 16.9116L20.5037 14.86V11.6119L19.7084 12.3997C19.5167 12.5908 19.2031 12.5933 19.008 12.4056C18.8129 12.2179 18.8103 11.9103 19.002 11.7192L20.591 10.1453C20.7022 10.0346 20.8539 9.98703 21.0004 10.003C21.1465 9.98703 21.2982 10.0346 21.4091 10.1453L22.9985 11.7192C23.1901 11.9103 23.1875 12.2179 22.9925 12.4056C22.7974 12.5933 22.4837 12.5908 22.2921 12.3997L21.4972 11.6123V14.8714L27.8673 17.0076C28.0842 17.0795 28.2175 17.2845 28.2033 17.4987L28.2037 17.5248V24.8736L30.8493 26.8251L30.6847 25.7271C30.6452 25.4615 30.8329 25.2145 31.1041 25.1758C31.3752 25.1371 31.627 25.321 31.6665 25.5865L31.9948 27.7766C32.0176 27.9311 31.9639 28.0796 31.8612 28.184C31.7864 28.306 31.6575 28.3948 31.5024 28.415L29.2624 28.7113C28.9917 28.7471 28.7421 28.5606 28.706 28.2951C28.6695 28.0295 28.8598 27.7854 29.131 27.7497L30.2529 27.6015L27.7078 25.7237L21.2656 28.9301C21.1885 28.9759 21.1 29.0001 21.0099 29C20.9102 29 20.8178 28.9714 20.7401 28.9221L14.3695 25.6669L11.7472 27.6015L12.8691 27.7497C13.1402 27.7854 13.3306 28.0295 13.2945 28.2951C13.2579 28.5606 13.0083 28.7471 12.7376 28.7113L10.4976 28.415C10.3425 28.3948 10.214 28.306 10.1388 28.184C10.0863 28.1306 10.0469 28.0661 10.0238 27.9955C10.0006 27.9249 9.99426 27.85 10.0052 27.7766L10.3335 25.5865C10.373 25.321 10.6248 25.1371 10.896 25.1758C11.1671 25.2145 11.3549 25.4615 11.3153 25.7271L11.1508 26.8251L13.795 24.8744V17.3922C13.795 17.1498 13.9764 16.9487 14.2127 16.9116ZM21.0915 15.7606C21.0619 15.7661 21.0314 15.769 21.0004 15.769C20.9618 15.769 20.9235 15.7648 20.8874 15.7564L15.6753 17.4558L21.0125 19.8268L26.3466 17.524L21.0915 15.7606ZM15.6375 22.6402C15.6375 22.5005 15.7531 22.3872 15.8958 22.3872C16.0384 22.3872 16.154 22.5005 16.154 22.6402L16.1527 23.6978C16.1532 23.7323 16.157 23.7605 16.1656 23.7815L16.1789 23.7996L16.8239 24.0934C16.9532 24.1514 17.0095 24.3017 16.9502 24.4284C16.8905 24.555 16.7371 24.6102 16.6078 24.5521L15.9143 24.2339C15.8077 24.1691 15.7346 24.0807 15.6895 23.973C15.6534 23.8871 15.6375 23.792 15.6384 23.6898L15.6375 22.6402ZM20.5128 27.7131V20.6715L14.7885 18.1287V24.7882L20.5128 27.7131ZM27.2103 18.2133L21.5066 20.6752V27.7215L27.2103 24.8829V18.2133Z" fill="white"/>
</svg>
