<svg width="101" height="30" viewBox="0 0 101 30" fill="none" xmlns="http://www.w3.org/2000/svg">
<path d="M70.0284 24.4951C70.0284 23.605 70.7582 22.8835 71.6585 22.8835H76.5487C77.449 22.8835 78.1788 23.605 78.1788 24.4951V27.7181C78.1788 28.6081 77.449 29.3296 76.5487 29.3296H71.6585C70.7582 29.3296 70.0284 28.6081 70.0284 27.7181V24.4951Z" fill="#D6FF3F"/>
<path d="M81.439 24.4951C81.439 23.605 82.1688 22.8835 83.0691 22.8835H87.9593C88.8596 22.8835 89.5894 23.605 89.5894 24.4951V27.7181C89.5894 28.6081 88.8596 29.3296 87.9593 29.3296H83.0691C82.1688 29.3296 81.439 28.6081 81.439 27.7181V24.4951Z" fill="#D6FF3F"/>
<path d="M92.8496 24.4951C92.8496 23.605 93.5794 22.8835 94.4797 22.8835H99.3699C100.27 22.8835 101 23.605 101 24.4951V27.7181C101 28.6081 100.27 29.3296 99.3699 29.3296H94.4797C93.5794 29.3296 92.8496 28.6081 92.8496 27.7181V24.4951Z" fill="#D6FF3F"/>
<path d="M0 19.5251V0H8.47644V18.6034C8.47644 20.7821 9.67727 21.8715 12.0789 21.8715C14.4806 21.8715 15.6814 20.7821 15.6814 18.6034V0H24.1578V19.5251C24.1578 22.6536 23.0418 25.1816 20.8097 27.1089C18.5775 29.0363 15.6673 30 12.0789 30C8.49056 30 5.58032 29.0363 3.34819 27.1089C1.11606 25.1816 0 22.6536 0 19.5251Z" fill="white"/>
<path d="M46.425 0V8.12849H36.4652V11.9413H46.2131V20.0698H36.4652V29.3296H27.9888V0H46.425Z" fill="white"/>
<path d="M68.237 0V8.12849H58.2772V11.9413H68.0251V20.0698H58.2772V29.3296H49.8007V0H68.237Z" fill="white"/>
</svg>
