<svg width="43" height="43" viewBox="0 0 43 43" fill="none" xmlns="http://www.w3.org/2000/svg">
<path d="M33.8864 30.1051H30.9584C29.8498 30.1051 29.5072 29.2236 27.5157 27.2053C25.7809 25.5256 25.0137 25.2999 24.5877 25.2999C23.9897 25.2999 23.8191 25.4705 23.8191 26.2956V28.9401C23.8191 29.6523 23.592 30.0783 21.7148 30.0783C17.9281 29.8243 14.6735 27.7589 12.7842 24.7489L12.756 24.7019C10.563 21.9781 8.94644 18.6953 8.14691 15.1048L8.11734 14.9476C8.11734 14.5217 8.288 14.1226 9.11306 14.1226H12.0411C12.7802 14.1226 13.065 14.4639 13.3513 15.2594C14.7998 19.4411 17.2186 23.1096 18.2143 23.1096C18.5838 23.1096 18.7545 22.9389 18.7545 22.001V17.6754C18.6403 15.684 17.5881 15.5147 17.5881 14.8038C17.6002 14.4236 17.9119 14.1199 18.2936 14.1199C18.3057 14.1199 18.3164 14.1199 18.3285 14.1212H18.3272H22.9349C23.5611 14.1212 23.7882 14.4625 23.7882 15.2016V21.0335C23.7882 21.6583 24.073 21.8867 24.2437 21.8867C24.6132 21.8867 24.9277 21.6583 25.6089 20.977C27.0253 19.2476 28.236 17.2696 29.1591 15.1371L29.2209 14.9758C29.4158 14.4881 29.8834 14.1494 30.4303 14.1494C30.4558 14.1494 30.48 14.1508 30.5056 14.1521H30.5015H33.4296C34.3111 14.1521 34.5113 14.605 34.3111 15.2325C33.1366 17.8192 31.8171 20.0418 30.2879 22.1004L30.3578 22.001C30.046 22.5129 29.9318 22.74 30.3578 23.3111C30.6695 23.7371 31.6948 24.6186 32.3774 25.4154C33.3651 26.3923 34.1928 27.5292 34.8177 28.7842L34.8513 28.8581C35.1361 29.6805 34.7088 30.1078 33.8838 30.1078L33.8864 30.1051ZM27.6877 1.35156H15.3158C4.02428 1.35156 1.35156 4.02428 1.35156 15.3158V27.6877C1.35156 38.9793 4.02428 41.652 15.3158 41.652H27.6877C38.9793 41.652 41.652 38.9793 41.652 27.6877V15.3158C41.652 4.02428 38.9497 1.35156 27.6877 1.35156Z" fill="white"/>
</svg>
